<?xml version="1.0" encoding="utf-8"?>
<!-- Generator: Adobe Illustrator 16.0.0, SVG Export Plug-In . SVG Version: 6.00 Build 0)  -->
<!DOCTYPE svg PUBLIC "-//W3C//DTD SVG 1.1//EN" "http://www.w3.org/Graphics/SVG/1.1/DTD/svg11.dtd">
<svg version="1.1" id="Layer_1" xmlns="http://www.w3.org/2000/svg" xmlns:xlink="http://www.w3.org/1999/xlink" x="0px" y="0px"
	 width="993px" height="152.014px" viewBox="0 0 993 152.014" enable-background="new 0 0 993 152.014" xml:space="preserve">
<g>
	<g>
		<path fill="#293644" d="M927.695,85.92c-3.838,5.16-9.985,8.109-16.717,8.109c-11.347,0-20.361-8.586-20.361-21.096
			c0-12.943,9.015-20.945,20.361-20.945c11.202,0,20.802,8.438,20.802,20.945c0,2.041-0.24,3.961-0.683,5.75
			c-0.313,1.254-1.138,2.469-1.643,3.588l19.477,4.867l1.759-79.95l-17.747,6.521v33.188c-4.219-7.418-15.998-11.49-23.567-11.49
			c-20.942,0-36.505,12.8-36.505,37.526c0,23.564,15.854,37.527,36.945,37.527c8.726,0,17.599-2.91,23.127-11.488"/>
	</g>
</g>
<polygon fill="#FF5621" points="961.611,11.825 984.087,34.374 961.764,56.636 "/>
<g>
	<g>
		<path fill="#FF5621" d="M175.149,54.028c-5.176-4.88-11.092-6.507-18.042-6.507c-8.578,0-13.31,2.662-13.31,7.247
			c0,4.732,4.289,7.394,13.606,7.986c13.753,0.887,31.204,3.993,31.204,23.366c0,12.866-10.5,23.958-31.352,23.958
			c-11.535,0-23.071-1.922-33.719-13.014l8.874-12.867c5.176,5.768,17.007,10.057,25.141,10.205
			c6.803,0.147,13.162-3.402,13.162-8.727c0-5.027-4.141-7.098-14.493-7.689c-13.754-1.035-30.169-6.063-30.169-22.627
			c0-16.859,17.451-22.775,30.761-22.775c11.388,0,19.965,2.219,28.395,9.613L175.149,54.028z"/>
	</g>
</g>
<g>
	<g>
		<path fill="#FF5621" d="M95.257,107.564V69.409c0-11.091-6.063-19.521-17.599-19.521c-11.091,0-18.634,9.317-18.634,20.409v37.268
			H41.13V34.507h16.12l1.183,9.908c7.394-7.246,14.789-10.943,23.958-10.943c17.155,0,30.909,12.866,30.909,35.789v38.304H95.257z"
			/>
	</g>
</g>
<g>
	<g>
		<path fill="#FF5621" d="M218.387,15.983c0,11.792-17.871,11.792-17.871,0C200.516,4.192,218.387,4.192,218.387,15.983z
			 M200.43,34.347v73.215h18.043V34.347H200.43z"/>
	</g>
</g>
<g>
	<g>
		<path fill="#FF5621" d="M27.904,15.983c0,11.792-17.871,11.792-17.871,0C10.033,4.192,27.904,4.192,27.904,15.983z M9.947,34.347
			v73.215h18.044V34.347H9.947z"/>
	</g>
</g>
<g>
	<g>
		<path fill="#FF5621" d="M293.805,27.248l13.313,10.058l-8.135,10.353c5.621,6.361,7.691,13.61,7.691,21.596
			c0,9.023-3.404,21.74-15.383,27.215c12.129,6.064,15.087,8.184,15.087,17.504c0,20.113-15.382,32.535-36.532,32.535
			s-36.978-12.865-36.978-32.535h17.896c0,9.463,8.727,15.678,19.082,15.678c10.352,0,18.486-5.623,18.486-15.678
			c0-10.059-9.465-8.037-18.486-8.037c-22.779,0-36.978-13.906-36.978-36.682c0-22.779,16.566-36.976,36.978-36.976
			c5.77,0,11.684,0.739,16.713,4.142L293.805,27.248z M250.764,69.254c0,12.719,8.581,20.262,19.082,20.262
			c10.352,0,18.932-7.689,18.932-20.262c0-12.572-8.58-20.56-18.932-20.56C259.345,48.694,250.764,56.534,250.764,69.254z"/>
	</g>
</g>
<g>
	<g>
		<path fill="#FF5621" d="M339.352,4.042v40.521c6.507-8.43,14.493-10.944,22.774-10.944c20.705,0,29.874,14.05,29.874,35.493
			v38.452h-18.042V69.261c0-13.31-6.951-18.93-16.563-18.93c-10.647,0-18.042,9.021-18.042,19.965v37.268h-18.042V4.042H339.352z"/>
	</g>
</g>
<g>
	<g>
		<path fill="#FF5621" d="M434.182,10.92v23.872h20.115v15.529h-20.262v31.505c0,6.949,3.845,10.352,9.465,10.352
			c2.81,0,6.065-0.887,8.727-2.217l5.029,15.383c-5.177,2.07-9.467,2.957-14.938,3.104c-15.826,0.594-26.18-8.432-26.18-26.621
			V50.321h-13.609V34.792h13.609l0.814-14.084L434.182,10.92z"/>
	</g>
</g>
<g>
	<g>
		<path fill="#293644" d="M517.834,54.028c-5.176-4.88-11.091-6.507-18.042-6.507c-8.577,0-13.31,2.662-13.31,7.247
			c0,4.732,4.288,7.394,13.605,7.986c13.754,0.887,31.204,3.993,31.204,23.366c0,12.866-10.5,23.958-31.353,23.958
			c-11.535,0-23.07-1.922-33.718-13.014l8.874-12.867c5.176,5.768,17.007,10.057,25.141,10.205
			c6.803,0.147,13.162-3.402,13.162-8.727c0-5.027-4.141-7.098-14.493-7.689c-13.753-1.035-30.169-6.063-30.169-22.627
			c0-16.859,17.451-22.775,30.761-22.775c11.388,0,19.965,2.219,28.395,9.613L517.834,54.028z"/>
	</g>
</g>
<g>
	<g>
		<path fill="#293644" d="M541.883,138.029V34.655h16.858l1.184,10.056c5.62-8.134,15.38-11.683,23.662-11.683
			c22.479,0,37.416,16.711,37.416,38.155c0,21.296-13.458,38.154-36.824,38.154c-7.69,0-19.078-2.365-24.254-10.352v39.043H541.883z
			 M602.96,71.184c0-11.388-7.69-20.705-20.704-20.705c-13.015,0-20.704,9.317-20.704,20.705c0,11.387,8.43,20.704,20.704,20.704
			S602.96,82.57,602.96,71.184z"/>
	</g>
</g>
<g>
	<g>
		<path fill="#293644" d="M647.723,34.655l1.331,8.429c5.62-9.021,13.162-10.352,20.557-10.352c7.542,0,14.788,2.958,18.781,6.951
			l-8.134,15.676c-3.697-3.105-7.099-4.732-13.014-4.732c-9.465,0-18.19,5.028-18.19,18.486v38.452h-18.042V34.655H647.723z"/>
	</g>
</g>
<g>
	<g>
		<path fill="#293644" d="M708.509,77.542c1.183,9.022,9.021,15.528,21.739,15.528c6.655,0,15.381-2.514,19.521-6.803l11.535,11.388
			c-7.69,7.986-20.261,11.831-31.353,11.831c-25.141,0-40.077-15.527-40.077-38.895c0-22.183,15.084-38.155,38.746-38.155
			c24.402,0,39.635,15.084,36.824,45.105H708.509z M748.143,62.606c-1.183-9.465-8.577-14.197-18.93-14.197
			c-9.761,0-17.746,4.732-20.408,14.197H748.143z"/>
	</g>
</g>
<g>
	<g>
		<path fill="#293644" d="M839.556,34.655h17.303v72.909h-17.008l-0.887-10.648c-4.141,8.578-15.528,12.719-23.662,12.866
			c-21.592,0.147-37.563-13.162-37.563-38.747c0-25.141,16.711-38.303,38.007-38.155c9.761,0,19.078,4.584,23.219,11.831
			L839.556,34.655z M795.78,71.036c0,13.902,9.612,22.183,21.592,22.183c28.395,0,28.395-44.218,0-44.218
			C805.393,49,795.78,57.134,795.78,71.036z"/>
	</g>
</g>
<path fill="#293644" d="M726.889,135.316"/>
</svg>
