<svg height="473pt" viewBox="0 -44 473.37352 473" width="473pt" xmlns="http://www.w3.org/2000/svg"><path d="m32.921875 65.988281h434.453125v49.367188h-434.453125zm0 0" fill="#6fe3ff"/><path d="m427.882812 6.1875c21.808594 0 39.492188 17.679688 39.492188 39.488281v20.3125h-434.453125v-20.3125c.003906-21.8125 17.6875-39.492187 39.5-39.488281zm0 0" fill="#f8ec7d"/><path d="m382.714844 171.058594c17.101562-.007813 32.328125 10.832031 37.914062 26.996094 5.589844 16.164062.316406 34.09375-13.136718 44.652343-13.453126 10.5625-32.125 11.429688-46.5 2.160157 11.460937-7.382813 18.382812-20.078126 18.382812-33.710938 0-13.628906-6.921875-26.328125-18.382812-33.710938 6.472656-4.179687 14.015624-6.398437 21.722656-6.386718zm0 0" fill="#cc7350"/><path d="m299.164062 211.15625c.003907-22.144531 17.957032-40.089844 40.101563-40.089844 22.144531.003906 40.097656 17.953125 40.097656 40.097656.003907 22.144532-17.945312 40.097657-40.089843 40.101563-22.152344 0-40.109376-17.957031-40.109376-40.109375zm0 0" fill="#e48e66"/><path d="m176.703125 349.078125-141.417969-141.421875c25.222656-25.445312 62.136719-35.453125 96.757813-26.230469 34.625 9.222657 61.667969 36.265625 70.890625 70.890625s-.78125 71.535156-26.230469 96.761719zm0 0" fill="#6fe3ff"/><path d="m35.285156 207.65625 141.417969 141.421875c-38.695313 38.75-101.363281 39.171875-140.574219.941406-39.210937-38.230469-40.375-100.890625-2.617187-140.554687.59375-.609375 1.183593-1.21875 1.773437-1.808594zm0 0" fill="#6fe3ff"/><path d="m299.164062 211.15625c-.003906 14.679688 8.015626 28.1875 20.902344 35.214844 12.890625 7.027344 28.589844 6.449218 40.925782-1.503906 16.773437 10.804687 38.941406 7.636718 52.015624-7.4375 13.070313-15.078126 13.070313-37.46875 0-52.542969-13.074218-15.074219-35.242187-18.246094-52.015624-7.441407-12.335938-7.945312-28.03125-8.519531-40.917969-1.496093-12.886719 7.027343-20.90625 20.53125-20.910157 35.207031zm-266.242187-2.238281v-93.5625h434.453125v140.972656c0 21.808594-17.683594 39.488281-39.492188 39.488281h-223.410156c7.617188-42.992187-13.539062-85.957031-52.261718-106.132812-38.71875-20.175782-86.054688-12.898438-116.925782 17.972656-.589844.589844-1.179687 1.199219-1.773437 1.808594zm0 0" fill="#f8ec7d"/><g fill="#63316d"><path d="m427.882812.1875h-355.460937c-25.113281.023438-45.46875 20.375-45.5 45.488281v162.101563c-29.519531 33.070312-35.34375 81.019531-14.597656 120.195312 20.746093 39.175782 63.679687 61.304688 107.625 55.472656 43.941406-5.832031 79.617187-38.398437 89.425781-81.628906h218.507812c25.113282-.027344 45.460938-20.378906 45.492188-45.488281v-210.652344c-.03125-25.109375-20.378906-45.460937-45.492188-45.488281zm33.492188 109.167969h-422.453125v-37.367188h422.453125zm-449.382812 169.011719c-.035157-22.863282 8.300781-44.945313 23.433593-62.082032l132.65625 132.652344c-27.722656 24.394531-67.164062 30.292969-100.8125 15.078125-33.652343-15.214844-55.273437-48.71875-55.277343-85.648437zm186.574218 16.410156c-2.976562 16.964844-10.589844 32.773437-22 45.671875l-132.660156-132.65625c27.726562-24.390625 67.164062-30.289063 100.8125-15.074219s55.273438 48.71875 55.273438 85.648438c.003906 5.5-.476563 10.992187-1.425782 16.410156zm229.316406-4.960938h-216.527343c.417969-3.800781.628906-7.625.636719-11.449218 0-40.945313-23.582032-78.226563-60.574219-95.773438-36.992188-17.546875-80.78125-12.226562-112.496094 13.671875v-74.910156h422.453125v134.972656c-.023438 18.484375-15.003906 33.46875-33.492188 33.488281zm33.492188-229.828125h-422.453125v-14.3125c.027344-18.488281 15.011719-33.46875 33.5-33.488281h355.460937c18.488282.019531 33.46875 15 33.492188 33.488281zm0 0"/><path d="m382.714844 165.058594c-7.578125-.007813-15.039063 1.863281-21.71875 5.4375-19.402344-10.371094-43.425782-5.59375-57.382813 11.410156-13.953125 17.003906-13.953125 41.5 0 58.503906 13.957031 17.003906 37.980469 21.78125 57.382813 11.410156 16.929687 9.042969 37.691406 6.648438 52.117187-6.011718 14.429688-12.65625 19.503907-32.929688 12.742188-50.894532-6.761719-17.960937-23.945313-29.855468-43.140625-29.855468zm-77.550782 46.097656c.003907-18.828125 15.273438-34.089844 34.101563-34.089844 18.832031.003906 34.097656 15.265625 34.097656 34.097656.003907 18.828126-15.257812 34.097657-34.089843 34.101563-18.832032-.019531-34.089844-15.277344-34.109376-34.109375zm77.550782 34.109375c-3.621094-.003906-7.214844-.585937-10.652344-1.722656 17.746094-17.941407 17.75-46.820313.007812-64.765625 12.808594-4.21875 26.898438-.488282 35.949219 9.511718 9.046875 10 11.351563 24.394532 5.875 36.71875-5.472656 12.324219-17.695312 20.265626-31.179687 20.257813zm0 0"/></g></svg>