<svg id="Layer_2" data-name="Layer 2" xmlns="http://www.w3.org/2000/svg" width="15.87mm" height="8.81mm" viewBox="0 0 45 24.97">
  <defs>
    <style>
      .cls-1 {
        fill: #1da1db;
      }
    </style>
  </defs>
  <title>Vector Smart Object4</title>
  <path class="cls-1" d="M44.58,13.86c0-.06.07-.12.1-.18a2.46,2.46,0,0,0,.13-.25,2.49,2.49,0,0,0,.08-.25c0-.07,0-.14.06-.22a2.51,2.51,0,0,0,0-1c0-.08,0-.15-.06-.22a2.47,2.47,0,0,0-.08-.25,2.49,2.49,0,0,0-.13-.25c0-.06-.06-.12-.1-.18a2.51,2.51,0,0,0-.31-.38L34.37.81A2.6,2.6,0,0,0,30.92.53a2.5,2.5,0,0,0-.19,3.71L36.46,10H2.68A2.62,2.62,0,0,0,0,12.25,2.5,2.5,0,0,0,2.5,15h34L30.84,20.6a2.6,2.6,0,0,0-.24,3.5,2.5,2.5,0,0,0,3.67.15l10-10A2.52,2.52,0,0,0,44.58,13.86Z"/>
</svg>
